<?xml version="1.0" encoding="UTF-8"?>
<svg width="800px" height="600px" viewBox="0 0 800 600" version="1.1" xmlns="http://www.w3.org/2000/svg">
    <title>Carnaval Brasileiro</title>
    <defs>
        <linearGradient x1="0%" y1="0%" x2="100%" y2="100%" id="gradient1">
            <stop stop-color="#009c3b" offset="0%"></stop>
            <stop stop-color="#ffdf00" offset="50%"></stop>
            <stop stop-color="#002776" offset="100%"></stop>
        </linearGradient>
        <linearGradient x1="0%" y1="100%" x2="100%" y2="0%" id="gradient2">
            <stop stop-color="#ff00ff" offset="0%"></stop>
            <stop stop-color="#ffdf00" offset="50%"></stop>
            <stop stop-color="#00ffff" offset="100%"></stop>
        </linearGradient>
    </defs>
    <g stroke="none" fill="none">
        <!-- Fundo -->
        <rect fill="#1a1a1a" x="0" y="0" width="800" height="600"></rect>
        
        <!-- Elementos de Carnaval -->
        <!-- Confetes -->
        <g id="confetti" fill-rule="nonzero">
            <circle fill="#FF5555" cx="100" cy="100" r="8"></circle>
            <circle fill="#55FF55" cx="150" cy="150" r="6"></circle>
            <circle fill="#5555FF" cx="200" cy="50" r="10"></circle>
            <circle fill="#FFFF55" cx="250" cy="120" r="7"></circle>
            <circle fill="#FF55FF" cx="300" cy="80" r="9"></circle>
            <circle fill="#55FFFF" cx="350" cy="190" r="8"></circle>
            <circle fill="#FF5555" cx="400" cy="40" r="7"></circle>
            <circle fill="#55FF55" cx="450" cy="140" r="9"></circle>
            <circle fill="#5555FF" cx="500" cy="90" r="6"></circle>
            <circle fill="#FFFF55" cx="550" cy="170" r="10"></circle>
            <circle fill="#FF55FF" cx="600" cy="60" r="8"></circle>
            <circle fill="#55FFFF" cx="650" cy="130" r="7"></circle>
            <circle fill="#FF5555" cx="700" cy="180" r="9"></circle>
            
            <circle fill="#FF5555" cx="120" cy="250" r="8"></circle>
            <circle fill="#55FF55" cx="170" cy="300" r="6"></circle>
            <circle fill="#5555FF" cx="220" cy="200" r="10"></circle>
            <circle fill="#FFFF55" cx="270" cy="270" r="7"></circle>
            <circle fill="#FF55FF" cx="320" cy="230" r="9"></circle>
            <circle fill="#55FFFF" cx="370" cy="340" r="8"></circle>
            <circle fill="#FF5555" cx="420" cy="190" r="7"></circle>
            <circle fill="#55FF55" cx="470" cy="290" r="9"></circle>
            <circle fill="#5555FF" cx="520" cy="240" r="6"></circle>
            <circle fill="#FFFF55" cx="570" cy="320" r="10"></circle>
            <circle fill="#FF55FF" cx="620" cy="210" r="8"></circle>
            <circle fill="#55FFFF" cx="670" cy="280" r="7"></circle>
            <circle fill="#FF5555" cx="720" cy="330" r="9"></circle>
            
            <circle fill="#FF5555" cx="80" cy="400" r="8"></circle>
            <circle fill="#55FF55" cx="130" cy="450" r="6"></circle>
            <circle fill="#5555FF" cx="180" cy="350" r="10"></circle>
            <circle fill="#FFFF55" cx="230" cy="420" r="7"></circle>
            <circle fill="#FF55FF" cx="280" cy="380" r="9"></circle>
            <circle fill="#55FFFF" cx="330" cy="490" r="8"></circle>
            <circle fill="#FF5555" cx="380" cy="340" r="7"></circle>
            <circle fill="#55FF55" cx="430" cy="440" r="9"></circle>
            <circle fill="#5555FF" cx="480" cy="390" r="6"></circle>
            <circle fill="#FFFF55" cx="530" cy="470" r="10"></circle>
            <circle fill="#FF55FF" cx="580" cy="360" r="8"></circle>
            <circle fill="#55FFFF" cx="630" cy="430" r="7"></circle>
            <circle fill="#FF5555" cx="680" cy="480" r="9"></circle>
        </g>
        
        <!-- Máscara Carnaval -->
        <g id="mask" transform="translate(300, 220)">
            <path d="M100,20 C155,20 200,65 200,120 C200,175 155,220 100,220 C45,220 0,175 0,120 C0,65 45,20 100,20 Z" fill="url(#gradient1)"></path>
            <circle cx="60" cy="90" r="25" fill="white"></circle>
            <circle cx="60" cy="90" r="10" fill="#222222"></circle>
            <circle cx="140" cy="90" r="25" fill="white"></circle>
            <circle cx="140" cy="90" r="10" fill="#222222"></circle>
            <path d="M70,150 C70,170 130,170 130,150" stroke="#ff0066" stroke-width="8" fill="none"></path>
            <path d="M50,60 C60,40 80,40 90,50" stroke="#ffcc00" stroke-width="5" fill="none"></path>
            <path d="M110,50 C120,40 140,40 150,60" stroke="#ffcc00" stroke-width="5" fill="none"></path>
        </g>
        
        <!-- Tambor de Carnaval -->
        <g id="drum" transform="translate(600, 450)">
            <rect x="0" y="0" width="100" height="80" rx="10" fill="url(#gradient2)"></rect>
            <rect x="10" y="10" width="80" height="60" rx="5" fill="#222222" stroke="#ffffff" stroke-width="2"></rect>
            <circle cx="25" cy="25" r="8" fill="#ffffff"></circle>
            <circle cx="75" cy="25" r="8" fill="#ffffff"></circle>
            <circle cx="25" cy="55" r="8" fill="#ffffff"></circle>
            <circle cx="75" cy="55" r="8" fill="#ffffff"></circle>
        </g>
        
        <!-- Pandeiro -->
        <g id="tambourine" transform="translate(100, 450)">
            <circle cx="50" cy="50" r="50" fill="#ffcc00"></circle>
            <circle cx="50" cy="50" r="40" fill="#cc9900" stroke="#ffcc00" stroke-width="2"></circle>
            <circle cx="50" cy="15" r="8" fill="#ffffff" stroke="#cc9900" stroke-width="1"></circle>
            <circle cx="85" cy="50" r="8" fill="#ffffff" stroke="#cc9900" stroke-width="1"></circle>
            <circle cx="50" cy="85" r="8" fill="#ffffff" stroke="#cc9900" stroke-width="1"></circle>
            <circle cx="15" cy="50" r="8" fill="#ffffff" stroke="#cc9900" stroke-width="1"></circle>
            <circle cx="25" cy="25" r="8" fill="#ffffff" stroke="#cc9900" stroke-width="1"></circle>
            <circle cx="75" cy="25" r="8" fill="#ffffff" stroke="#cc9900" stroke-width="1"></circle>
            <circle cx="75" cy="75" r="8" fill="#ffffff" stroke="#cc9900" stroke-width="1"></circle>
            <circle cx="25" cy="75" r="8" fill="#ffffff" stroke="#cc9900" stroke-width="1"></circle>
        </g>
    </g>
</svg>